<svg width="324" height="324" viewBox="0 0 324 324" fill="none" xmlns="http://www.w3.org/2000/svg">
<path d="M126.562 151.875C125.22 151.875 123.932 152.408 122.983 153.358C122.033 154.307 121.5 155.595 121.5 156.938V197.438C121.5 198.78 122.033 200.068 122.983 201.017C123.932 201.967 125.22 202.5 126.562 202.5C127.905 202.5 129.193 201.967 130.142 201.017C131.092 200.068 131.625 198.78 131.625 197.438V156.938C131.625 155.595 131.092 154.307 130.142 153.358C129.193 152.408 127.905 151.875 126.562 151.875ZM162 81C189.955 81 212.625 72.495 212.625 62.0156C212.625 51.5363 189.945 43.0312 162 43.0312C134.055 43.0312 111.375 51.5363 111.375 62.0156C111.375 72.495 134.045 81 162 81ZM162 70.875C145.223 70.875 131.625 66.339 131.625 60.75C131.625 55.161 145.223 50.625 162 50.625C178.777 50.625 192.375 55.161 192.375 60.75C192.375 66.339 178.777 70.875 162 70.875Z" fill="black"/>
<path d="M284.108 73.224C278.555 67.6726 271.07 64.4866 263.22 64.3343C262.784 53.4195 257.509 44.4791 251.191 37.9485C244.681 31.2154 236.247 26.0719 227.397 22.2041C209.608 14.4281 186.482 10.125 161.98 10.125C137.508 10.125 114.372 14.4281 96.5925 22.2041C87.7433 26.0719 79.299 31.2154 72.7988 37.9485C66.2074 44.7728 60.75 54.2194 60.75 65.8125V150.721C56.0608 150.027 51.2744 150.44 46.7735 151.928C42.2727 153.415 38.1825 155.935 34.83 159.286L27.6615 166.445C24.8404 169.266 22.6025 172.614 21.0757 176.3C19.5489 179.985 18.7631 183.936 18.7631 187.925C18.7631 191.914 19.5489 195.865 21.0757 199.55C22.6025 203.236 24.8404 206.585 27.6615 209.405L60.75 242.494V258.188C60.75 269.781 66.2074 279.227 72.7988 286.062C79.3091 292.785 87.7534 297.918 96.6026 301.796C114.382 309.572 137.508 313.875 162 313.875C183.06 313.875 202.976 310.696 219.328 304.965C229.169 301.512 238.444 296.875 245.926 290.851C254.775 283.723 263.25 272.757 263.25 258.188V151.369L291.276 123.343C294.097 120.522 296.335 117.173 297.862 113.488C299.389 109.802 300.174 105.852 300.174 101.863C300.174 97.8732 299.389 93.923 297.862 90.2374C296.335 86.5518 294.097 83.203 291.276 80.3824L284.108 73.224ZM81 191.16V100.693C84.1793 102.981 87.5914 105.016 91.125 106.829V146.812C91.125 148.155 91.6584 149.443 92.6078 150.392C93.5572 151.342 94.8448 151.875 96.1875 151.875C97.5302 151.875 98.8178 151.342 99.7672 150.392C100.717 149.443 101.25 148.155 101.25 146.812V111.324C118.321 117.906 139.593 121.5 162 121.5C186.482 121.5 209.618 117.197 227.387 109.421C236.247 105.543 244.691 100.41 251.191 93.6765C253.338 91.4591 255.363 88.9684 257.114 86.2144C259.059 84.9496 261.38 84.3912 263.687 84.6326C265.995 84.8741 268.15 85.9007 269.791 87.5407L276.959 94.7093C278.857 96.608 279.924 99.1828 279.924 101.868C279.924 104.552 278.857 107.127 276.959 109.026L243 142.965V258.188C243 264.303 239.456 270.054 233.219 275.076C230.283 277.439 226.793 279.622 222.75 281.627V237.938C222.75 236.595 222.217 235.307 221.267 234.358C220.318 233.408 219.03 232.875 217.688 232.875C216.345 232.875 215.057 233.408 214.108 234.358C213.158 235.307 212.625 236.595 212.625 237.938V285.849C198.754 290.709 181.157 293.625 162 293.625C117.268 293.625 81 277.759 81 258.188V234.1L41.9783 195.089C41.0369 194.148 40.2901 193.031 39.7805 191.802C39.271 190.573 39.0087 189.256 39.0087 187.925C39.0087 186.594 39.271 185.277 39.7805 184.048C40.2901 182.819 41.0369 181.702 41.9783 180.762L49.1468 173.603C51.0455 171.705 53.6203 170.639 56.3051 170.639C58.9899 170.639 61.5648 171.705 63.4635 173.603L81 191.16ZM243 65.8125C243 85.3841 206.732 101.25 162 101.25C117.268 101.25 81 85.3841 81 65.8125C81 46.2409 117.268 30.375 162 30.375C206.732 30.375 243 46.2409 243 65.8125Z" fill="black"/>
</svg>
