<svg width="334" height="334" viewBox="0 0 334 334" fill="none" xmlns="http://www.w3.org/2000/svg">
<path d="M27.8333 306.167V278.333C27.8333 278.333 97.4167 250.5 167 250.5C236.583 250.5 306.167 278.333 306.167 278.333V306.167H27.8333ZM157.258 126.642C140.558 72.3666 55.6667 84.8916 55.6667 84.8916C55.6667 84.8916 58.45 193.442 137.775 176.742C132.208 136.383 111.333 125.25 111.333 125.25C150.3 125.25 153.083 172.567 153.083 172.567V236.583H180.917V178.133C180.917 178.133 180.917 123.858 222.667 109.942C222.667 109.942 194.833 151.692 194.833 179.525C292.25 189.267 292.25 55.6666 292.25 55.6666C292.25 55.6666 168.392 41.7499 157.258 126.642Z" fill="black"/>
</svg>
