<svg width="334" height="334" viewBox="0 0 334 334" fill="none" xmlns="http://www.w3.org/2000/svg">
<path d="M230.114 25.748L208.526 80.1366L281.038 152.729L319.017 114.711L230.114 25.748ZM125.515 29.152C61.4221 72.842 16.6583 134.34 14.9622 217.618C55.5706 139.456 120.94 70.7806 181.453 41.6483L125.515 29.152ZM63.7666 39.2424L44.4814 58.5283C49.2278 63.0686 53.9599 67.5913 58.7109 72.1251C64.5083 65.3473 70.6945 58.8499 77.1807 52.6155L63.7666 39.2424ZM294.574 39.2424L277.695 56.1016L296.429 74.8565C302.241 69.4029 308.055 63.9441 313.86 58.4866L294.574 39.2424ZM122.396 97.7903C116.115 103.486 110.009 109.374 104.089 115.445C120.569 131.186 137.05 146.968 153.464 162.903L170.547 145.86L122.396 97.7896V97.7903ZM222.409 111.307L44.3594 289.089L63.4815 308.151C117.939 245.441 178.136 186.49 239.492 128.409L222.408 111.305L222.409 111.307ZM203.98 179.252C198.315 184.738 192.668 190.242 187.039 195.765C223.502 231.892 259.557 269.058 294.778 308.253L313.982 289.091L203.98 179.251V179.252Z" fill="black"/>
</svg>
