<svg width="299" height="299" viewBox="0 0 299 299" fill="none" xmlns="http://www.w3.org/2000/svg">
<path fill-rule="evenodd" clip-rule="evenodd" d="M203.42 92.5405C205.524 91.9969 207.757 92.2994 209.64 93.3832C211.523 94.4669 212.907 96.2457 213.494 98.3378C216.252 108.211 216.689 118.589 214.769 128.659C212.849 138.729 208.625 148.218 202.428 156.384C196.23 164.549 188.228 171.171 179.046 175.729C169.864 180.287 159.751 182.659 149.5 182.659C139.249 182.659 129.136 180.287 119.954 175.729C110.772 171.171 102.77 164.549 96.5722 156.384C90.3748 148.218 86.151 138.729 84.2312 128.659C82.3113 118.589 82.7475 108.211 85.5057 98.3378C86.0928 96.2457 87.4765 94.4669 89.3599 93.3832C91.2433 92.2994 93.4765 91.9969 95.5803 92.5405C126.494 100.514 172.506 100.514 203.42 92.5405ZM99.9989 110.58C99.2049 117.555 99.8935 124.619 102.02 131.309C104.146 137.999 107.661 144.165 112.336 149.401C117.01 154.638 122.739 158.829 129.145 161.698C135.552 164.567 142.493 166.05 149.512 166.05C156.532 166.05 163.473 164.567 169.88 161.698C176.286 158.829 182.015 154.638 186.689 149.401C191.364 144.165 194.879 137.999 197.005 131.309C199.131 124.619 199.82 117.555 199.026 110.58C168.985 116.643 130.032 116.643 99.9989 110.58Z" fill="black"/>
<path fill-rule="evenodd" clip-rule="evenodd" d="M107.972 186.792C58.2469 195.471 0 217.63 0 249.167V299H299V249.167C299 217.63 240.753 195.471 191.028 186.792V224.25H107.972V186.792ZM58.1389 299V224.25H74.75V299H58.1389ZM232.556 224.25V299H249.167V224.25H232.556ZM157.806 0.481723V37.2089C157.806 39.4117 156.931 41.5242 155.373 43.0818C153.815 44.6394 151.703 45.5144 149.5 45.5144C147.297 45.5144 145.185 44.6394 143.627 43.0818C142.069 41.5242 141.194 39.4117 141.194 37.2089V0C132.619 0.448513 124.187 2.38779 116.278 5.73083V53.82C116.278 56.0228 115.403 58.1353 113.845 59.6929C112.288 61.2505 110.175 62.1256 107.972 62.1256C105.769 62.1256 103.657 61.2505 102.099 59.6929C100.542 58.1353 99.6667 56.0228 99.6667 53.82V16.0712C88.2881 25.8552 81.7267 38.5461 79.642 49.6672L79.4426 50.83L79.2765 50.9961C78.5373 56.2203 78.9443 60.5226 80.0074 63.4794C80.6883 65.5368 80.5381 67.7789 79.5888 69.727C78.6396 71.6752 76.9664 73.1752 74.9265 73.9069C72.8865 74.6385 70.6414 74.5439 68.6703 73.6431C66.6992 72.7423 65.1583 71.1068 64.3764 69.0856L63.9777 67.9228C15.7473 130.896 283.518 130.862 234.939 67.8149L234.541 69.0275C233.775 71.0559 232.246 72.7046 230.281 73.6211C228.316 74.5377 226.071 74.6495 224.025 73.9327C221.978 73.2159 220.293 71.7273 219.33 69.7849C218.366 67.8426 218.201 65.6004 218.868 63.5375C220.064 60.099 220.413 55.8133 219.765 51.0792L219.616 50.9712C217.822 39.7421 210.994 27.3253 199.333 17.5413V53.82C199.333 56.0228 198.458 58.1353 196.901 59.6929C195.343 61.2505 193.231 62.1256 191.028 62.1256C188.825 62.1256 186.712 61.2505 185.155 59.6929C183.597 58.1353 182.722 56.0228 182.722 53.82V7.15939C179.479 5.70371 176.141 4.4689 172.731 3.46342C167.85 2.04173 162.857 1.04971 157.806 0.481723Z" fill="black"/>
</svg>
